<svg width="24" height="24" xmlns="http://www.w3.org/2000/svg">

 <g>
  <title>background</title>
  <rect fill="none" id="canvas_background" height="602" width="802" y="-1" x="-1"/>
 </g>
 <g>
  <title>Layer 1</title>
  <path id="svg_1" fill="#ffffff" d="m12,4c-4.41828,0 -8,3.58172 -8,8c0,4.4183 3.58172,8 8,8c1.2023,0 2.34,-0.2646 3.3605,-0.7377c0.5011,-0.2323 1.0956,-0.0144 1.3279,0.4867c0.2323,0.501 0.0144,1.0955 -0.4867,1.3278c-1.2787,0.5928 -2.703,0.9232 -4.2017,0.9232c-5.52285,0 -10,-4.4772 -10,-10c0,-5.52285 4.47715,-10 10,-10c5.5228,0 10,4.47715 10,10l-0.0002,0.019c-0.0417,2.1899 -0.7391,3.6649 -1.7673,4.5803c-1.0039,0.8939 -2.1929,1.1375 -3.022,1.1375c-1.1925,0 -2.2394,-0.6192 -2.838,-1.5536c-2.0766,1.835 -5.06992,2.2383 -6.91832,0.1845c-1.92584,-2.1398 -1.38896,-5.7126 0.66577,-7.99564c1.98795,-2.20886 5.60275,-3.06173 7.67815,-0.50632c0.1784,-0.48735 0.7057,-0.76144 1.2128,-0.61692c0.5312,0.15137 0.839,0.70464 0.6877,1.23578c-0.5922,2.0764 -1.2911,4.1333 -1.8133,6.2274c0.1521,0.5893 0.6886,1.0248 1.3252,1.0248c0.479,0 1.1471,-0.146 1.6921,-0.6312c0.5198,-0.4628 1.062,-1.3539 1.0974,-3.1151c-0.0051,-4.4139 -3.5849,-7.9905 -8,-7.9905zm2.3531,8.914c0.0696,-0.2401 0.2531,-0.8814 0.4665,-1.6281c0.2338,-0.819 -0.0688,-1.60571 -0.7077,-2.31565c-0.9192,-1.02134 -2.8917,-1.05319 -4.50537,0.73974c-1.62221,1.80251 -1.68148,4.19121 -0.66576,5.31981c0.9192,1.0213 2.89173,1.0531 4.50533,-0.7398c0.373,-0.4145 0.7243,-0.8441 0.907,-1.376z" clip-rule="evenodd" fill-rule="evenodd"/>
 </g>
</svg>